<svg width="32" height="32" viewBox="0 0 32 32" fill="none" xmlns="http://www.w3.org/2000/svg">
<g clip-path="url(#clip0_37_66876)">
<path d="M26.4356 29.9522H2.70181V9.94581C2.70238 8.92025 3.01688 7.93513 3.61256 7.09594C3.93981 6.635 3.83163 5.9955 3.37019 5.66819C2.90869 5.34094 2.26919 5.44857 1.94244 5.91057C1.09988 7.09757 0.653938 8.49256 0.653938 9.94525V30.9761C0.653938 31.5413 1.11263 32.0001 1.67788 32.0001H26.4356C27.0013 32.0001 27.4601 31.5419 27.4601 30.9761C27.46 30.4103 27.0013 29.9522 26.4356 29.9522Z" fill="#727489"/>
<path d="M18.5265 3.06175C18.2664 3.32244 18.1161 3.67744 18.1161 4.0435C18.1161 4.40956 18.2658 4.76456 18.521 5.02525C18.7817 5.28037 19.1367 5.43019 19.5028 5.43019C19.8694 5.43019 20.2299 5.28044 20.4845 5.02525C20.7391 4.76456 20.8889 4.40956 20.8889 4.0435C20.8889 3.67744 20.7397 3.32244 20.4845 3.06175C19.9687 2.54594 19.0368 2.54594 18.5265 3.06175Z" fill="#727489"/>
<path d="M12.2427 2.65688C11.4773 2.65688 10.856 3.27813 10.856 4.04356C10.856 4.809 11.4773 5.43025 12.2427 5.43025C13.0081 5.43025 13.6294 4.809 13.6294 4.04356C13.6293 3.27813 13.0081 2.65688 12.2427 2.65688Z" fill="#727489"/>
<path d="M15.8758 2.65688C15.1048 2.65688 14.4891 3.27813 14.4891 4.04356C14.4891 4.809 15.1048 5.43025 15.8758 5.43025C16.6406 5.43025 17.2624 4.809 17.2624 4.04356C17.2624 3.27813 16.6412 2.65688 15.8758 2.65688Z" fill="#727489"/>
<path d="M7.62781 3.06175C7.37269 3.32244 7.22288 3.67744 7.22288 4.0435C7.22288 4.40956 7.37263 4.76456 7.62781 5.02525C7.8885 5.28594 8.2435 5.43019 8.60956 5.43019C8.97563 5.43019 9.33063 5.286 9.59131 5.02525C9.84644 4.76456 9.99625 4.40956 9.99625 4.0435C9.99625 3.67744 9.8465 3.32244 9.59131 3.06175C9.0755 2.54594 8.14919 2.54594 7.62781 3.06175Z" fill="#727489"/>
<path d="M29.9599 13.2982C29.3942 13.2982 28.9354 13.7564 28.9354 14.3221V19.8344H27.4594V9.94581C27.4594 7.48556 26.0141 5.11538 23.8034 3.8505C23.7859 1.72431 22.0518 0 19.9221 0H8.19194C6.05144 0 4.30925 1.74169 4.30925 3.88269V4.2055C4.30925 6.3465 6.05094 8.08819 8.19194 8.08819H19.9221C21.4138 8.08819 22.7106 7.24194 23.3604 6.00494C24.6188 6.95613 25.4111 8.42969 25.4111 9.94519V28.4157C25.4111 28.9814 25.8697 29.4396 26.4356 29.4396C27.0013 29.4396 27.4601 28.9814 27.4595 28.4163V21.8834H29.9599C30.5251 21.8834 30.9844 21.4247 30.9844 20.8589V14.3221C30.9844 13.7569 30.5257 13.2982 29.9599 13.2982ZM19.9221 6.03981H8.19194C7.18019 6.03981 6.35706 5.21725 6.35706 4.2055V3.88269C6.35706 2.87094 7.18019 2.04781 8.19194 2.04781H19.9221C20.9338 2.04781 21.7564 2.87094 21.7564 3.88269V4.2055C21.7564 5.21725 20.9333 6.03981 19.9221 6.03981Z" fill="#727489"/>
<path d="M29.9594 12.8356C30.7252 12.8356 31.3461 12.2148 31.3461 11.4489C31.3461 10.6831 30.7252 10.0622 29.9594 10.0622C29.1935 10.0622 28.5727 10.6831 28.5727 11.4489C28.5727 12.2148 29.1935 12.8356 29.9594 12.8356Z" fill="#727489"/>
<path d="M9.69619 25.0527C9.131 25.0527 8.67225 25.5114 8.67225 26.0772C8.67225 26.643 9.13044 27.1017 9.69619 27.1017H18.4173C18.983 27.1017 19.4412 26.6431 19.4412 26.0772C19.4412 25.5115 18.983 25.0527 18.4173 25.0527H9.69619Z" fill="#727489"/>
<path d="M5.11575 22.0342H22.9978C23.5635 22.0342 24.0217 21.5756 24.0223 21.0103V14.1091C24.0223 13.5439 23.5641 13.0852 22.9983 13.0852C22.4326 13.0852 21.9738 13.5434 21.9738 14.1091V19.9864H18.0612V14.2921C18.0612 13.7269 17.6025 13.2682 17.0373 13.2682C16.472 13.2682 16.0133 13.7264 16.0133 14.2921V19.9864H12.1007V14.2921C12.1007 13.7269 11.642 13.2682 11.0768 13.2682C10.5115 13.2682 10.0528 13.7264 10.0528 14.2921V19.9864H6.14019V12.4301H22.9977C23.5634 12.4301 24.0216 11.9714 24.0216 11.4062C24.0216 10.841 23.5634 10.3822 22.9977 10.3822H5.11575C4.55056 10.3822 4.09181 10.8404 4.09181 11.4062V21.0103C4.09181 21.5761 4.54994 22.0342 5.11575 22.0342Z" fill="#727489"/>
<path d="M7.13419 16.9723C6.87906 17.2274 6.72925 17.5886 6.72925 17.9541C6.72925 18.3207 6.879 18.6757 7.13419 18.9364C7.39488 19.1909 7.74988 19.3407 8.11594 19.3407C8.482 19.3407 8.837 19.1916 9.09769 18.9364C9.35281 18.6757 9.50263 18.3201 9.50263 17.9541C9.50263 17.588 9.35288 17.2336 9.09769 16.9723C8.58188 16.4565 7.65 16.4565 7.13419 16.9723Z" fill="#727489"/>
<path d="M9.09769 13.484C8.58188 12.9737 7.65 12.9682 7.13413 13.484C6.879 13.7447 6.72919 14.0997 6.72919 14.4657C6.72919 14.8318 6.87894 15.1924 7.13413 15.4475C7.39481 15.7082 7.74981 15.8524 8.11588 15.8524C8.48194 15.8524 8.83694 15.7082 9.09763 15.4475C9.35275 15.1924 9.50256 14.8318 9.50256 14.4657C9.50263 14.0997 9.35281 13.7447 9.09769 13.484Z" fill="#727489"/>
<path d="M19.0152 16.9723C18.7601 17.2274 18.6103 17.5886 18.6103 17.9541C18.6103 18.3207 18.7594 18.6757 19.0152 18.9364C19.2753 19.1909 19.6309 19.3407 19.9969 19.3407C20.363 19.3407 20.718 19.1916 20.9781 18.9364C21.2333 18.6757 21.3831 18.3201 21.3831 17.9541C21.3831 17.588 21.2339 17.2274 20.9781 16.9723C20.4623 16.4565 19.531 16.4565 19.0152 16.9723Z" fill="#727489"/>
<path d="M20.9782 13.484C20.4624 12.9682 19.5311 12.9737 19.0152 13.484C18.7601 13.7447 18.6103 14.0997 18.6103 14.4657C18.6103 14.8318 18.7594 15.1924 19.0152 15.4475C19.2753 15.7082 19.6309 15.8524 19.9969 15.8524C20.363 15.8524 20.718 15.7082 20.9781 15.4475C21.2333 15.1924 21.3831 14.8318 21.3831 14.4657C21.3831 14.0997 21.2339 13.7447 20.9782 13.484Z" fill="#727489"/>
<path d="M13.0747 16.9723C12.8196 17.2274 12.6698 17.5886 12.6698 17.9541C12.6698 18.3207 12.8195 18.6757 13.0747 18.9364C13.3354 19.1909 13.6904 19.3407 14.0564 19.3407C14.4225 19.3407 14.7775 19.1916 15.0382 18.9364C15.2933 18.6757 15.4431 18.3201 15.4431 17.9541C15.4431 17.588 15.2934 17.2336 15.0382 16.9723C14.5224 16.4565 13.5905 16.4565 13.0747 16.9723Z" fill="#727489"/>
<path d="M15.0382 13.484C14.5224 12.9737 13.5961 12.9682 13.0747 13.4896C12.8196 13.7447 12.6698 14.1053 12.6698 14.4658C12.6698 14.8318 12.8195 15.1868 13.0747 15.4475C13.3354 15.7082 13.6904 15.8524 14.0564 15.8524C14.4225 15.8524 14.7775 15.7083 15.0382 15.4475C15.2933 15.1868 15.4431 14.8318 15.4431 14.4658C15.4431 14.1053 15.2934 13.7447 15.0382 13.484Z" fill="#727489"/>
</g>
<defs>
<clipPath id="clip0_37_66876">
<rect width="32" height="32" fill="white"/>
</clipPath>
</defs>
</svg>
