<svg width="32" height="32" viewBox="0 0 32 32" fill="none" xmlns="http://www.w3.org/2000/svg">
<g clip-path="url(#clip0_37_66921)">
<path d="M29.3589 5.21839H26.7713C26.2056 5.21839 25.7468 5.67657 25.7468 6.24232C25.7468 6.80808 26.2056 7.26626 26.7713 7.26626H26.8867L15.6993 18.4536L4.51363 7.2662H11.0899C11.6551 7.2662 12.1144 6.80801 12.1144 6.24226C12.1144 5.67651 11.6562 5.21832 11.0905 5.21832H2.042C1.62763 5.21832 1.25438 5.46795 1.09569 5.85064C0.937003 6.23333 1.02469 6.67376 1.31757 6.96664L14.6748 20.326V28.2469C14.6748 28.8127 15.133 29.2709 15.6988 29.2709C16.2645 29.2709 16.7227 28.8127 16.7227 28.2475V20.3257L30.0827 6.9667C30.3756 6.67326 30.4632 6.23289 30.3046 5.8507C30.1466 5.46739 29.7727 5.21839 29.3589 5.21839Z" fill="#727489"/>
<path d="M30.8211 0.472487C30.5166 -0.00345106 29.8831 -0.143201 29.4066 0.160737L19.4094 6.55081C18.6127 5.79419 17.5197 5.34887 16.3123 5.40194C13.9815 5.50287 12.1666 7.482 12.2675 9.81219C12.285 10.2195 12.3598 10.6106 12.4827 10.9789L11.578 11.5572C11.1015 11.8623 10.9623 12.4957 11.2668 12.9716C11.4621 13.2778 11.7926 13.4448 12.1305 13.4448C12.319 13.4448 12.5098 13.3926 12.6813 13.2833L13.5842 12.7061C14.342 13.423 15.3648 13.8601 16.4903 13.8601C16.5518 13.8601 16.614 13.859 16.6761 13.8563C19.0063 13.7565 20.8224 11.7796 20.7225 9.44819C20.7045 9.04057 20.6295 8.64913 20.507 8.28038L30.5093 1.88693C30.9863 1.58186 31.1256 0.948988 30.8211 0.472487ZM16.588 11.8107L16.4903 11.8129C15.3194 11.8129 14.3637 10.8955 14.3132 9.72457C14.2617 8.522 15.1979 7.50088 16.4005 7.44869L16.4958 7.44644C17.2434 7.44644 17.9033 7.82088 18.297 8.39613C18.3079 8.416 18.3183 8.436 18.3308 8.45538C18.3451 8.47775 18.3604 8.49913 18.3761 8.52C18.5526 8.81944 18.6603 9.16538 18.6769 9.53701C18.7279 10.7391 17.791 11.7591 16.588 11.8107Z" fill="#727489"/>
<path d="M21.7359 29.9527H9.66164C9.09646 29.9527 8.6377 30.4103 8.6377 30.976C8.6377 31.5418 9.09589 32 9.66164 32H21.7365C22.3017 32 22.7599 31.5424 22.7599 30.9766C22.7599 30.4109 22.3017 29.9527 21.7359 29.9527Z" fill="#727489"/>
</g>
<defs>
<clipPath id="clip0_37_66921">
<rect width="32" height="32" fill="white"/>
</clipPath>
</defs>
</svg>
