<svg width="32" height="32" viewBox="0 0 32 32" fill="none" xmlns="http://www.w3.org/2000/svg">
<path d="M16.0042 18.3482C16.1651 18.4397 16.3392 18.4836 16.5117 18.4836C16.8673 18.4836 17.2129 18.2978 17.402 17.9677C17.6821 17.4762 17.5118 16.8511 17.0204 16.5704C13.116 14.3389 11.0343 11.8551 10.4685 8.75331C10.2173 7.37325 10.509 5.32925 11.7254 3.871C12.7349 2.66069 14.1942 2.04719 16.0613 2.04719C18.9772 2.04719 21.0579 3.66294 21.6259 6.36756C22.1856 9.03 21.0113 12.4907 17.6854 13.9528C17.1679 14.1813 16.9322 14.7854 17.1601 15.3029C17.3881 15.8204 17.9921 16.0539 18.5102 15.8282C22.8344 13.9268 24.3593 9.41775 23.6299 5.94712C23.0259 3.07181 20.7206 0 16.0613 0C12.9434 0 11.1274 1.39169 10.1523 2.55931C8.3995 4.66044 8.14106 7.40663 8.45331 9.12006C9.34969 14.0367 13.1919 16.7419 16.0042 18.3482Z" fill="#727489"/>
<path d="M29.5022 29.9527H25.1159V18.9183C26.2559 19.6587 27.2879 20.5571 27.6519 21.5077C28.2909 23.1706 28.257 25.1142 28.2271 26.8298C28.2209 27.1987 28.2143 27.5581 28.2143 27.9048C28.2143 28.4706 28.6725 28.9287 29.2382 28.9287C29.804 28.9287 30.2627 28.4706 30.2627 27.9048C30.2627 27.5698 30.2683 27.222 30.2749 26.8653C30.3082 24.9639 30.3454 22.8078 29.5644 20.7744C28.3197 17.5234 22.9454 15.4627 22.3364 15.2387C21.9736 15.1056 21.5665 15.1877 21.2836 15.4517C18.9141 17.6654 17.042 22.1084 15.9792 25.0987C14.9292 22.2559 13.1054 18.0571 10.7419 15.5044C10.4607 15.2009 10.0247 15.0967 9.63644 15.2387C9.02794 15.4627 3.65425 17.5234 2.40787 20.7738C1.57031 22.9581 1.47325 27.6429 1.47325 30.9766C1.47325 31.5418 1.932 31.9999 2.49719 31.9999H29.5017C30.0675 31.9999 30.5268 31.5423 30.5268 30.9766C30.5268 30.4108 30.0681 29.9527 29.5022 29.9527ZM9.69469 17.4208C12.8624 21.2936 14.9913 28.5854 15.0135 28.6625C15.1399 29.1007 15.5416 29.4024 15.9975 29.4024C15.9992 29.4024 16.0014 29.4024 16.0031 29.4024C16.4612 29.4002 16.8617 29.0935 16.9843 28.6519C17.0071 28.5699 19.1958 20.7711 22.2354 17.4025C22.4865 17.5089 22.7682 17.6355 23.0674 17.7791V22.7252H20.8903C20.3246 22.7252 19.8664 23.1834 19.8664 23.7492C19.8664 24.3149 20.3246 24.7731 20.8903 24.7731H23.0674V29.9527H8.92925V17.7687C9.20269 17.6376 9.46137 17.5207 9.69469 17.4208ZM4.31931 21.5071C4.68525 20.5526 5.73062 19.6488 6.88137 18.9048V29.9527H3.52556C3.56106 25.6289 3.82781 22.7907 4.31931 21.5071Z" fill="#727489"/>
<path d="M16.0003 21.7539C16.7661 21.7539 17.3869 21.1331 17.3869 20.3672C17.3869 19.6014 16.7661 18.9806 16.0003 18.9806C15.2344 18.9806 14.6136 19.6014 14.6136 20.3672C14.6136 21.1331 15.2344 21.7539 16.0003 21.7539Z" fill="#727489"/>
</svg>
