<svg width="48" height="44" viewBox="0 0 48 44" fill="none" xmlns="http://www.w3.org/2000/svg">
<circle cx="40" cy="12" r="8" fill="#FA5926"/>
<path d="M36.902 14.394L36.594 13.8055C36.7443 13.5012 36.8873 13.2023 37.023 12.909C37.1587 12.612 37.2888 12.3205 37.4135 12.0345C37.5418 11.7448 37.6665 11.4588 37.7875 11.1765C37.9085 10.8905 38.0295 10.6063 38.1505 10.324C38.2715 10.038 38.3943 9.752 38.519 9.466C38.6473 9.18 38.7775 8.89033 38.9095 8.597C39.0452 8.3 39.1863 7.99933 39.333 7.695H39.7455L40.5815 8.1845C40.4422 8.4485 40.312 8.70517 40.191 8.9545C40.07 9.20017 39.9545 9.444 39.8445 9.686C39.7345 9.928 39.6263 10.1682 39.52 10.4065C39.4137 10.6448 39.3037 10.885 39.19 11.127C39.08 11.3653 38.9645 11.6092 38.8435 11.8585C38.7225 12.1078 38.5923 12.3645 38.453 12.6285L37.991 13.4205H42.941V14.394H36.902ZM40.433 16V13.3435L40.554 10.7035H41.698V16H40.433Z" fill="white"/>
<g clip-path="url(#clip0_28_6677)">
<g clip-path="url(#clip1_28_6677)">
<path d="M12.9953 24.9955C13.3952 24.5955 13.3952 23.947 12.9953 23.5471C10.2721 20.8239 8.82651 18.2361 9.02782 16.4465C9.11882 15.6388 9.5387 15.0103 10.3115 14.5244C12.7922 12.9673 15.1038 15.7798 15.1986 15.8979C15.3917 16.1409 15.6862 16.2818 15.9974 16.2829C16.3003 16.3012 16.6038 16.1425 16.799 15.9007C16.8961 15.7803 19.2077 12.9656 21.6879 14.5255C22.4606 15.0109 22.8806 15.6394 22.9715 16.4471C23.174 18.2367 21.7278 20.8245 19.0046 23.5477C18.6046 23.947 18.6046 24.5955 19.0046 24.996C19.2048 25.1957 19.4667 25.2956 19.7291 25.2956C19.9915 25.2956 20.2533 25.1957 20.4536 24.9949C23.7126 21.7353 25.2875 18.7004 25.0074 16.2174C24.8465 14.7901 24.0754 13.6058 22.7774 12.7903C20.1147 11.1161 17.5091 12.418 16.0002 13.7777C14.4914 12.4181 11.887 11.1172 9.22257 12.7903C7.9245 13.6058 7.15343 14.7907 6.99255 16.2175C6.71299 18.6999 8.28788 21.7354 11.5469 24.995C11.9468 25.3955 12.5953 25.3955 12.9953 24.9955Z" fill="#727489"/>
<path d="M31.211 21.2228C29.9872 19.2751 27.998 18.5495 25.6093 19.1814C25.0624 19.3262 24.7362 19.8864 24.8809 20.4334C25.0252 20.9803 25.5843 21.3071 26.1324 21.1618C27.6446 20.7629 28.7385 21.1385 29.4757 22.3123C31.0329 24.7919 28.2203 27.1041 28.1022 27.1994C27.8587 27.3931 27.7162 27.6887 27.7162 28.0004C27.7162 28.3122 27.8587 28.6068 28.1022 28.8015C28.2237 28.898 31.0467 31.1879 29.4757 33.6886C28.9904 34.4614 28.3613 34.8813 27.5536 34.9722C25.7618 35.1731 23.1762 33.728 20.453 31.0053C20.0536 30.6048 19.4057 30.6048 19.0052 31.0053C18.6053 31.4047 18.6053 32.0532 19.0052 32.4532C22.0185 35.4664 24.8393 37.0397 27.2097 37.0397C27.4033 37.0397 27.5953 37.0286 27.7838 37.0081C29.2106 36.8466 30.3955 36.0761 31.211 34.7781C32.8841 32.1142 31.5832 29.5092 30.223 28.0003C31.5832 26.4911 32.8841 23.8866 31.211 21.2228Z" fill="#727489"/>
<path d="M23.6584 37.0953C23.1064 37.2196 22.7597 37.7676 22.8845 38.3196C23.2046 39.737 22.8129 40.7705 21.689 41.4766C19.2083 43.0349 16.8967 40.2212 16.8013 40.1031C16.413 39.6149 15.5876 39.6149 15.1992 40.1031C15.1033 40.2246 12.8139 43.0493 10.3121 41.4766C9.53933 40.9912 9.11938 40.3622 9.02845 39.5545C8.82651 37.7649 10.2721 35.1771 12.9954 32.4539C13.1956 32.2537 13.2955 31.9923 13.2955 31.73C13.2955 31.4676 13.1956 31.2052 12.9954 31.0055C12.5959 30.6055 11.9475 30.605 11.5475 31.0055C8.82382 33.7287 6.23542 35.1748 4.44697 34.9724C3.63928 34.8814 3.01077 34.462 2.5254 33.6887C0.967696 31.2091 3.78022 28.8964 3.89834 28.8016C4.14135 28.6085 4.28222 28.3134 4.28335 28.0028C4.28447 27.6921 4.14297 27.397 3.90116 27.2012C3.78078 27.1041 0.968258 24.792 2.52596 22.3123C3.26321 21.1385 4.3566 20.7629 5.8693 21.1618C6.4168 21.3066 6.97599 20.9799 7.12074 20.4334C7.26556 19.8865 6.93937 19.3262 6.39236 19.1814C4.00366 18.5502 2.01439 19.2746 0.791257 21.2228C-0.882381 23.8867 0.418504 26.4911 1.7787 28.0006C0.418442 29.5094 -0.882444 32.1144 0.790632 34.7782C1.60608 36.0763 2.79102 36.8473 4.21778 37.0082C5.25735 37.1241 6.39511 36.9167 7.60556 36.3958C7.08412 37.6056 6.87606 38.7428 6.99312 39.783C7.15399 41.2103 7.92506 42.3946 9.22314 43.2107C10.1207 43.7743 11.0116 44.0006 11.8559 44.0006C13.5174 44.0006 15.0001 43.1242 16.0009 42.2238C17.5098 43.584 20.1137 44.8854 22.7786 43.2112C24.6475 42.0369 25.3953 40.1397 24.8827 37.8692C24.7584 37.3172 24.2125 36.9699 23.6584 37.0953Z" fill="#727489"/>
<path d="M17.8975 29.024H21.2552C21.821 29.024 22.2798 28.5658 22.2798 27.9999C22.2798 27.4341 21.821 26.9754 21.2552 26.9754H17.8975C17.3316 26.9754 16.8729 27.4341 16.8729 27.9999C16.8729 28.5658 17.3316 29.024 17.8975 29.024Z" fill="#727489"/>
<path d="M14.102 26.9754H10.7448C10.1795 26.9754 9.72076 27.4341 9.72076 27.9999C9.72076 28.5658 10.179 29.024 10.7448 29.024H14.102C14.6678 29.024 15.126 28.5658 15.126 27.9999C15.126 27.4341 14.6678 26.9754 14.102 26.9754Z" fill="#727489"/>
<path d="M16.0003 27.1263C16.5661 27.1263 17.0243 26.6675 17.0243 26.1022V22.745C17.0243 22.1792 16.5655 21.7205 16.0003 21.7205C15.435 21.7205 14.9762 22.1792 14.9762 22.745V26.1022C14.9762 26.6681 15.4344 27.1263 16.0003 27.1263Z" fill="#727489"/>
<path d="M16.0003 34.2795C16.5661 34.2795 17.0243 33.8213 17.0243 33.2555V29.8977C17.0243 29.3319 16.5655 28.8731 16.0003 28.8731C15.435 28.8731 14.9762 29.3319 14.9762 29.8977V33.2555C14.9762 33.8213 15.4344 34.2795 16.0003 34.2795Z" fill="#727489"/>
<path d="M4.51622 38.0633C4.45185 38.1011 2.93359 39.0042 2.17746 40.8958C1.96777 41.4205 2.22352 42.0164 2.74827 42.2266C2.87309 42.2766 3.00177 42.3004 3.12828 42.3004C3.53434 42.3004 3.91934 42.0569 4.07966 41.6563C4.5606 40.4525 5.52361 39.8478 5.55523 39.8285C6.03899 39.5417 6.20092 38.9176 5.91692 38.4311C5.63179 37.9435 5.00492 37.7776 4.51622 38.0633Z" fill="#727489"/>
</g>
</g>
<defs>
<clipPath id="clip0_28_6677">
<rect width="32" height="32" fill="white" transform="translate(0 12)"/>
</clipPath>
<clipPath id="clip1_28_6677">
<rect width="32.0017" height="32.0017" fill="white" transform="translate(0 12)"/>
</clipPath>
</defs>
</svg>
