<svg width="32" height="32" viewBox="0 0 32 32" fill="none" xmlns="http://www.w3.org/2000/svg">
<path d="M15.1458 17.8169C14.6549 18.0981 14.4846 18.7238 14.7653 19.2147C14.9539 19.5453 15.2994 19.7306 15.655 19.7306C15.8269 19.7306 16.0023 19.6868 16.1625 19.5953C18.5787 18.2124 21.8801 15.8839 22.6511 11.65C22.9501 10.0143 22.5396 7.51157 20.9516 5.60732C19.7085 4.11688 18.0096 3.32925 16.0377 3.32925C13.8495 3.32925 12.0074 4.28275 10.8509 6.015C9.53131 7.99019 9.31331 10.6699 10.2829 13.0078C10.4992 13.5298 11.0977 13.7783 11.6208 13.5614C12.1427 13.3445 12.3912 12.746 12.1743 12.2235C11.4749 10.5356 11.6235 8.54488 12.5543 7.15207C13.0945 6.34225 14.1384 5.37657 16.0376 5.37657C17.401 5.37657 18.5254 5.89519 19.3784 6.91857C20.4856 8.24482 20.8489 10.1174 20.6364 11.2823C20.1668 13.8659 18.4218 15.9421 15.1458 17.8169Z" fill="#727489"/>
<path d="M28.2018 29.9527H4.82713C4.86488 26.3673 5.10338 23.9788 5.53875 22.8456C6.10394 21.369 8.52625 20.02 10.0721 19.3273C11.7084 22.4013 14.0431 24.0409 16.5818 23.8723C18.9026 23.7137 20.9128 22.023 22.0099 19.3778C23.5369 20.0789 25.8904 21.414 26.439 22.8456C27.0059 24.3261 26.9792 25.766 26.9515 27.2903C26.9454 27.6142 26.9399 27.9359 26.9399 28.2548C26.9399 28.8206 27.3981 29.2788 27.9638 29.2788C28.5296 29.2788 28.9877 28.8206 28.9877 28.2548C28.9877 27.9475 28.9939 27.6391 28.9994 27.3274C29.0282 25.7515 29.0604 23.9654 28.3515 22.1128C27.2094 19.1336 22.3144 17.2583 21.7603 17.0541C21.4946 16.9554 21.1995 16.9726 20.9466 17.1002C20.6936 17.2278 20.5051 17.4535 20.4246 17.7253C19.7124 20.1371 18.1871 21.7096 16.442 21.8288C14.5649 21.9542 12.7723 20.4133 11.5026 17.5938C11.2813 17.1046 10.7199 16.8678 10.2151 17.0536C9.661 17.2577 4.76538 19.1331 3.62606 22.1117C2.86225 24.1013 2.77406 28.1239 2.77406 30.9766C2.77406 31.5418 3.23225 31.9999 3.798 31.9999H28.2017C28.7669 31.9999 29.2256 31.5423 29.2256 30.9766C29.2256 30.4108 28.7676 29.9527 28.2018 29.9527Z" fill="#727489"/>
<path d="M7.05638 13.8348C7.27713 14.5392 7.7575 15.5094 8.79031 16.1162C9.401 16.4756 10.1088 16.6548 10.9081 16.6548C11.8428 16.6548 12.9029 16.4094 14.0816 15.9194C14.2244 15.9694 14.3779 15.9969 14.5379 15.9969C15.3028 15.9969 15.9234 15.374 15.9234 14.6102C15.9234 13.8453 15.3028 13.2235 14.5379 13.2235C13.9769 13.2235 13.4949 13.5571 13.2768 14.0361C11.7546 14.6668 10.5718 14.7786 9.83863 14.3578C9.02381 13.8891 8.914 12.8081 8.91344 12.8058C8.8735 12.2716 8.42806 11.859 7.89225 11.859C7.29706 11.859 6.84394 11.6931 6.54494 11.367C6.28425 11.0813 6.14 10.6681 6.14 10.2038C6.14 9.38569 6.68081 8.08663 8.13075 8.08663C8.61719 8.08663 9.03656 7.74381 9.13419 7.26737C9.178 7.05438 10.2646 2.04675 15.8369 2.04675C21.6572 2.04675 22.8847 6.878 22.9329 7.07937C23.0406 7.54419 23.4543 7.87313 23.9308 7.87313C25.3491 7.87313 26.1146 9.03681 26.1146 10.1323C26.1146 10.6143 25.9626 11.0436 25.6869 11.3399C25.3662 11.6843 24.8798 11.8591 24.2414 11.8591C23.6756 11.8591 23.2174 12.3173 23.2174 12.883C23.2174 13.4488 23.6756 13.9069 24.2414 13.9069C25.7734 13.9069 26.6881 13.2707 27.1856 12.7366C27.8163 12.0604 28.1635 11.1357 28.1635 10.1334C28.1635 8.23369 26.8889 6.27506 24.7134 5.89294C23.8626 3.52219 21.2345 0 15.8381 0C10.618 0 8.11856 3.65919 7.32594 6.11475C5.28638 6.50969 4.09325 8.38506 4.09325 10.2044C4.09325 11.1823 4.42775 12.0869 5.03619 12.7504C5.42119 13.1703 6.06181 13.6546 7.05638 13.8348Z" fill="#727489"/>
</svg>
