<svg width="48" height="44" viewBox="0 0 48 44" fill="none" xmlns="http://www.w3.org/2000/svg">
<circle cx="40" cy="12" r="8" fill="#FA5926"/>
<path d="M37.88 16L37.6875 15.351C38.0285 15.1237 38.3768 14.8615 38.7325 14.5645C39.0882 14.2675 39.4273 13.9485 39.75 13.6075C40.0727 13.2665 40.3623 12.9127 40.619 12.546C40.8757 12.1757 41.0773 11.8035 41.224 11.4295C41.3743 11.0555 41.4495 10.6888 41.4495 10.3295C41.4495 9.83817 41.3267 9.46233 41.081 9.202C40.839 8.94167 40.4998 8.8115 40.0635 8.8115C39.6895 8.8115 39.3412 8.8885 39.0185 9.0425C38.6995 9.19283 38.4428 9.37067 38.2485 9.576L37.715 8.8115C37.858 8.66117 38.0487 8.50533 38.287 8.344C38.529 8.179 38.8168 8.0415 39.1505 7.9315C39.4842 7.81783 39.8582 7.761 40.2725 7.761C40.8555 7.761 41.3322 7.87283 41.7025 8.0965C42.0765 8.32017 42.3515 8.62083 42.5275 8.9985C42.7035 9.37617 42.7915 9.79783 42.7915 10.2635C42.7915 10.8135 42.6577 11.3708 42.39 11.9355C42.126 12.5002 41.7593 13.0428 41.29 13.5635C40.8243 14.0805 40.2853 14.5517 39.673 14.977L43.105 14.9275V16H37.88Z" fill="white"/>
<g clip-path="url(#clip0_28_6696)">
<path d="M31.905 24.2383C31.6326 23.399 30.8161 22.8221 29.6662 22.6546L21.7429 21.5024L19.5462 17.052C19.296 16.545 18.6825 16.3365 18.175 16.5872C17.6675 16.838 17.4594 17.4515 17.7096 17.959L20.1442 22.8925C20.2934 23.1943 20.5813 23.404 20.9152 23.4528L29.3717 24.6825C29.7689 24.7402 29.9325 24.8528 29.953 24.8456C29.9519 24.8922 29.8837 25.0875 29.5952 25.3687L23.4752 31.334C23.2344 31.5697 23.1241 31.9081 23.1812 32.2409L24.6262 40.6652C24.6939 41.0618 24.6339 41.2598 24.6501 41.267C24.6057 41.2804 24.401 41.277 24.0454 41.0912L16.4765 37.1107C16.1786 36.9543 15.8219 36.9537 15.523 37.1107L10.6899 39.6523C10.1896 39.9153 9.99708 40.5348 10.2606 41.0352C10.5235 41.535 11.1426 41.7286 11.6435 41.4645L16.0001 39.1736L23.0931 42.9041C23.6173 43.1792 24.1343 43.3167 24.6086 43.3167C25.0645 43.3167 25.4822 43.1897 25.8306 42.9362C26.5434 42.4176 26.8407 41.4635 26.6443 40.3186L25.2907 32.4252L31.0241 26.8349C31.8567 26.0239 32.1779 25.0775 31.905 24.2383Z" fill="#727489"/>
<path d="M7.95728 41.0913C7.60284 41.2777 7.39646 41.2815 7.39533 41.2987C7.36871 41.2605 7.30827 41.0624 7.3759 40.6663L8.82035 32.2415C8.87747 31.9087 8.7671 31.5703 8.52578 31.3346L2.40573 25.3693C2.1156 25.0864 2.05517 24.905 2.03185 24.8962C2.06017 24.859 2.22986 24.7403 2.62873 24.6826L11.0863 23.4528C11.4197 23.404 11.7081 23.1949 11.8573 22.8926L15.6404 15.2277C15.8185 14.8677 15.9832 14.7435 15.9743 14.7285C16.0176 14.7435 16.1829 14.8683 16.361 15.2283C16.6123 15.7353 17.2263 15.9444 17.7333 15.6931C18.2403 15.4423 18.4483 14.8283 18.1976 14.3213C17.6834 13.2801 16.883 12.6833 16.001 12.6833C15.1195 12.6833 14.3191 13.2796 13.8049 14.3203L10.2598 21.5031L2.33423 22.6557C1.18379 22.8226 0.367779 23.4001 0.0954639 24.2394C-0.177476 25.0792 0.144277 26.0255 0.976346 26.836L6.71089 32.4252L5.35682 40.3192C5.161 41.464 5.45776 42.4176 6.17114 42.9362C6.52001 43.1897 6.93721 43.3167 7.39258 43.3167C7.8674 43.3167 8.38384 43.1792 8.90916 42.9046C9.41004 42.6422 9.6031 42.0226 9.34016 41.5217C9.07722 41.0208 8.45872 40.8289 7.95728 41.0913Z" fill="#727489"/>
</g>
<defs>
<clipPath id="clip0_28_6696">
<rect width="32" height="32" fill="white" transform="translate(0 12)"/>
</clipPath>
</defs>
</svg>
