<svg width="32" height="32" viewBox="0 0 32 32" fill="none" xmlns="http://www.w3.org/2000/svg">
<g clip-path="url(#clip0_37_66928)">
<path d="M16.8072 30.1546L16.826 30.1305C16.8261 30.1304 16.8261 30.1304 16.8261 30.1304L31.7831 10.9645C32.0238 10.6561 32.0682 10.2373 31.8962 9.88563C31.7248 9.53343 31.3676 9.31043 30.976 9.31043H2.95214L6.41161 4.19573L9.74252 8.32534C9.92165 8.54778 10.1863 8.68535 10.4725 8.70416C10.4947 8.70585 10.5168 8.70641 10.539 8.70641C10.8014 8.70641 11.0549 8.60547 11.2468 8.42353L16.0009 3.88959L20.7539 8.42353C20.9614 8.62153 21.2443 8.72416 21.5277 8.70423C21.8128 8.68535 22.078 8.54835 22.2577 8.3254L25.6068 4.17366L28.4284 8.17065C28.6281 8.45297 28.9442 8.60385 29.266 8.60385C29.4696 8.60385 29.6759 8.54341 29.8556 8.41634C30.3177 8.09021 30.4275 7.45119 30.1013 6.98918L26.5229 1.92054C26.4651 1.83079 26.3928 1.74828 26.3052 1.6776C26.2677 1.64747 26.2285 1.62153 26.1884 1.59747C26.1845 1.59509 26.1805 1.59284 26.1765 1.59053C26.1473 1.57353 26.1176 1.55809 26.0873 1.54428C26.0818 1.54178 26.0764 1.53922 26.0709 1.53678C26.0367 1.5219 26.0021 1.50872 25.967 1.49778C25.9657 1.4974 25.9645 1.4969 25.9633 1.49653C25.9478 1.49178 25.9322 1.48753 25.9165 1.48353C25.904 1.48028 25.8914 1.47746 25.8787 1.47471C25.8598 1.47065 25.8409 1.46696 25.8218 1.46396C25.8039 1.46109 25.7859 1.45865 25.7678 1.45671C25.7569 1.45559 25.746 1.45453 25.735 1.45371C25.7103 1.4519 25.6856 1.45071 25.6606 1.45071H25.6536C25.6522 1.45071 25.6508 1.45071 25.6495 1.45071H20.15C19.5842 1.45071 19.1261 1.90941 19.1261 2.47462C19.1261 3.03982 19.5842 3.49852 20.15 3.49852H23.5206L21.3625 6.17372L16.7077 1.7341C16.3122 1.35634 15.6904 1.35634 15.2939 1.7341L10.6379 6.17372L8.48023 3.49852H11.8508C12.4165 3.49852 12.8747 3.03982 12.8747 2.47462C12.8747 1.90941 12.4165 1.45071 11.8508 1.45071H6.35205C6.35067 1.45071 6.34924 1.45071 6.34786 1.45071H6.33899C6.31349 1.45071 6.28823 1.45196 6.26305 1.45384C6.2543 1.45446 6.24561 1.4554 6.23686 1.45628C6.21354 1.45859 6.19042 1.46165 6.16748 1.46553C6.16123 1.46659 6.15492 1.4674 6.14867 1.46859C6.12273 1.47346 6.09717 1.47971 6.07185 1.48653C6.06267 1.48903 6.05354 1.49159 6.04442 1.49428C6.01891 1.50197 5.99366 1.51034 5.96891 1.51997C5.9616 1.52278 5.95441 1.52609 5.94716 1.52909C5.9261 1.53784 5.90529 1.54728 5.88485 1.5574C5.87772 1.5609 5.8706 1.56422 5.86354 1.5679C5.83885 1.58084 5.81485 1.59497 5.79128 1.60991C5.78435 1.61434 5.77747 1.61884 5.77053 1.62347C5.74666 1.63941 5.72328 1.65609 5.70078 1.6741C5.69922 1.67535 5.69753 1.67628 5.69603 1.67753C5.69222 1.6806 5.68897 1.6841 5.68516 1.68722C5.66628 1.70291 5.64797 1.71928 5.63015 1.73635C5.6244 1.74185 5.61847 1.74722 5.61284 1.75285C5.59422 1.7716 5.57647 1.79129 5.55921 1.81147C5.5519 1.82004 5.54484 1.82866 5.5379 1.83741C5.52384 1.85504 5.51034 1.87316 5.4974 1.89185C5.49315 1.89804 5.48865 1.90404 5.48452 1.91029L0.176004 9.76082C-0.0364391 10.0748 -0.0580647 10.4802 0.11944 10.8147C0.296945 11.1492 0.645267 11.3583 1.02409 11.3583H9.16031L13.2992 24.3998L3.95111 12.4216C3.60279 11.9756 2.95877 11.8963 2.51394 12.2441C2.06856 12.5918 1.98868 13.2353 2.337 13.6812L15.1734 30.1296C15.1753 30.1322 15.1773 30.1345 15.1792 30.137L15.1895 30.1502C15.196 30.1587 15.2029 30.167 15.2097 30.1753C15.2215 30.1896 15.2336 30.2033 15.246 30.2169C15.2546 30.2262 15.263 30.2357 15.272 30.2448C15.2848 30.2576 15.2982 30.2699 15.3116 30.2821C15.3255 30.2947 15.3397 30.3071 15.3543 30.319C15.357 30.3212 15.3597 30.3232 15.3625 30.3254C15.3763 30.3364 15.39 30.3475 15.4044 30.3578C15.4167 30.3666 15.4295 30.3746 15.4423 30.3829C15.4432 30.3834 15.444 30.384 15.4449 30.3846C15.448 30.3866 15.451 30.3887 15.4541 30.3907C15.4631 30.3964 15.4722 30.4019 15.4814 30.4073C15.4941 30.4148 15.5071 30.4219 15.5202 30.4289C15.5298 30.4339 15.5394 30.439 15.5491 30.4438C15.5519 30.4452 15.5547 30.4463 15.5574 30.4476C15.5609 30.4493 15.5644 30.4508 15.5678 30.4524C15.5792 30.4576 15.5903 30.4632 15.6019 30.4681C15.6177 30.4748 15.6337 30.4806 15.6497 30.4864C15.6542 30.488 15.6586 30.4898 15.6631 30.4913C15.6711 30.4941 15.6789 30.4973 15.6869 30.4999C15.6881 30.5003 15.6892 30.5008 15.6903 30.5011C15.7031 30.5052 15.7159 30.5082 15.7288 30.5117C15.7407 30.5149 15.7524 30.5186 15.7644 30.5215C15.7784 30.5248 15.7924 30.5272 15.8064 30.5299C15.8184 30.5323 15.8304 30.535 15.8426 30.5369C15.8547 30.5389 15.8669 30.5399 15.8791 30.5414C15.8819 30.5417 15.8847 30.542 15.8875 30.5423C15.8889 30.5424 15.8902 30.5426 15.8916 30.5428C15.9015 30.5439 15.9113 30.5454 15.9212 30.5463C15.9477 30.5483 15.9741 30.5494 16.0004 30.5494C16.0266 30.5494 16.0529 30.5484 16.0793 30.5463C16.0906 30.5454 16.1017 30.5437 16.1129 30.5424C16.1161 30.5421 16.1192 30.5418 16.1224 30.5413C16.1342 30.5399 16.1459 30.5389 16.1578 30.537C16.1724 30.5347 16.1868 30.5314 16.2013 30.5286C16.2126 30.5263 16.2239 30.5244 16.2352 30.5218C16.2554 30.5169 16.2754 30.5111 16.2953 30.5051C16.2999 30.5036 16.3047 30.5026 16.3094 30.5011C16.3098 30.501 16.3101 30.5009 16.3104 30.5008C16.3191 30.498 16.3276 30.4948 16.3361 30.4918C16.3419 30.4898 16.3476 30.4875 16.3534 30.4854C16.3693 30.4795 16.3851 30.4737 16.4006 30.4671C16.4093 30.4634 16.4176 30.4593 16.4261 30.4553C16.4303 30.4534 16.4346 30.4515 16.4388 30.4495C16.4436 30.4472 16.4486 30.4451 16.4535 30.4428C16.4633 30.4379 16.4728 30.4327 16.4825 30.4276C16.494 30.4214 16.5053 30.4151 16.5165 30.4086C16.5257 30.4033 16.5349 30.3978 16.544 30.3921C16.5496 30.3886 16.555 30.3848 16.5605 30.3811C16.5608 30.3809 16.561 30.3808 16.5613 30.3806C16.5724 30.3733 16.5837 30.3663 16.5945 30.3586C16.6078 30.3491 16.6205 30.3388 16.6334 30.3287C16.6385 30.3248 16.6436 30.3209 16.6485 30.3169C16.6508 30.315 16.6533 30.3133 16.6556 30.3113C16.6651 30.3034 16.6741 30.2951 16.6832 30.2869C16.6986 30.2731 16.7139 30.2591 16.7285 30.2443C16.729 30.2437 16.7296 30.2432 16.7301 30.2428C16.7376 30.2352 16.7446 30.2272 16.7518 30.2195C16.7656 30.2046 16.779 30.1893 16.7919 30.1736C16.7969 30.1672 16.8021 30.1611 16.8072 30.1546ZM18.7003 24.4011L22.8392 11.3583H28.8787L18.7003 24.4011ZM20.6908 11.3582L15.9998 26.1408L11.3089 11.3582H20.6908Z" fill="#727489"/>
</g>
<defs>
<clipPath id="clip0_37_66928">
<rect width="32" height="32" fill="white"/>
</clipPath>
</defs>
</svg>
